<?xml version="1.0" encoding="UTF-8" standalone="no"?>
<!-- Created with Inkscape (http://www.inkscape.org/) -->

<svg
   width="210mm"
   height="297mm"
   viewBox="0 0 210 297"
   version="1.1"
   id="svg5"
   xml:space="preserve"
   inkscape:version="1.2 (dc2aeda, 2022-05-15)"
   sodipodi:docname="amaniFavicon.svg"
   xmlns:inkscape="http://www.inkscape.org/namespaces/inkscape"
   xmlns:sodipodi="http://sodipodi.sourceforge.net/DTD/sodipodi-0.dtd"
   xmlns="http://www.w3.org/2000/svg"
   xmlns:svg="http://www.w3.org/2000/svg"><sodipodi:namedview
     id="namedview7"
     pagecolor="#ffffff"
     bordercolor="#999999"
     borderopacity="1"
     inkscape:showpageshadow="0"
     inkscape:pageopacity="0"
     inkscape:pagecheckerboard="0"
     inkscape:deskcolor="#d1d1d1"
     inkscape:document-units="mm"
     showgrid="false"
     inkscape:zoom="0.74102839"
     inkscape:cx="529.66931"
     inkscape:cy="410.91543"
     inkscape:window-width="1440"
     inkscape:window-height="847"
     inkscape:window-x="0"
     inkscape:window-y="25"
     inkscape:window-maximized="0"
     inkscape:current-layer="layer2" /><defs
     id="defs2"><inkscape:path-effect
       effect="spiro"
       id="path-effect3526"
       is_visible="true"
       lpeversion="1" /><inkscape:path-effect
       effect="spiro"
       id="path-effect3522"
       is_visible="true"
       lpeversion="1" /><inkscape:path-effect
       effect="spiro"
       id="path-effect3518"
       is_visible="true"
       lpeversion="1" /><inkscape:path-effect
       effect="spiro"
       id="path-effect3028"
       is_visible="true"
       lpeversion="1" /><inkscape:path-effect
       effect="spiro"
       id="path-effect3526-3"
       is_visible="true"
       lpeversion="1" /></defs><g
     inkscape:label="Layer 1"
     inkscape:groupmode="layer"
     id="layer1"><g
       id="layer2"
       inkscape:label="SVG"
       transform="translate(1.3375138,-8.2970343)"><ellipse
         style="fill:#d09650;fill-opacity:1;stroke:none;stroke-width:0.130339;stroke-linecap:round;stroke-linejoin:bevel;stroke-miterlimit:13.2;paint-order:fill markers stroke"
         id="path384-0"
         cx="102.69356"
         cy="80.278786"
         rx="15.046239"
         ry="16.367353" /><path
         style="fill:#9db374;fill-opacity:1;fill-rule:nonzero;stroke:none;stroke-width:0.0650827;stroke-linecap:round;stroke-linejoin:bevel;stroke-miterlimit:13.2;stroke-opacity:1;paint-order:fill markers stroke"
         d="m 168.29697,79.374949 c -12.8134,0.577791 -25.2368,5.44618 -35.50234,13.049024 -5.44069,3.893704 -10.15506,8.694317 -14.64824,13.623137 -7.8892,9.41248 -12.93936,21.18025 -14.24231,33.39896 -2.0822,-6.85907 -4.985239,-12.58053 -8.560439,-19.13951 -4.5557,-8.08122 -9.874463,-15.83805 -16.609315,-22.269766 C 71.693917,90.747939 62.762163,84.79294 52.741522,82.76143 c -4.20006,-0.907087 -8.36712,-1.304203 -12.650637,-1.039045 -0.751946,-0.142933 -2.839095,0.284191 -2.410087,0.905949 2.472783,1.970013 5.523439,4.629446 7.493082,6.710593 15.700505,15.483593 28.176477,34.189873 36.433442,54.640183 11.642939,28.10606 18.654138,58.10672 20.638828,88.45997 0.12874,0.89511 0.15861,16.31391 0.70991,17.24356 1.13881,-1.26411 0.73465,-14.28578 1.17161,-16.0138 3.14973,-35.59652 11.74968,-70.70907 25.36763,-103.74577 2.9524,-7.82523 11.82356,-20.79332 17.35498,-28.03696 6.7235,-8.1326 15.52246,-16.026735 22.35275,-21.226406 0.53487,-0.266538 0.79686,-1.228942 -0.034,-1.252468 -0.28845,-0.04321 -0.58146,-0.0346 -0.87209,-0.03229 z"
         id="path6994"
         sodipodi:nodetypes="scccccccccccccccccss" /></g></g></svg>
