<?xml version="1.0" encoding="UTF-8" standalone="no"?>
<!-- Created with Inkscape (http://www.inkscape.org/) -->

<svg
   width="210mm"
   height="297mm"
   viewBox="0 0 210 297"
   version="1.1"
   id="svg5"
   xml:space="preserve"
   inkscape:version="1.2 (dc2aeda, 2022-05-15)"
   sodipodi:docname="amaniLogo.svg"
   inkscape:export-filename="amaniLogo.png"
   inkscape:export-xdpi="300"
   inkscape:export-ydpi="300"
   xmlns:inkscape="http://www.inkscape.org/namespaces/inkscape"
   xmlns:sodipodi="http://sodipodi.sourceforge.net/DTD/sodipodi-0.dtd"
   xmlns="http://www.w3.org/2000/svg"
   xmlns:svg="http://www.w3.org/2000/svg"><sodipodi:namedview
     id="namedview7"
     pagecolor="#ffffff"
     bordercolor="#999999"
     borderopacity="1"
     inkscape:showpageshadow="0"
     inkscape:pageopacity="0"
     inkscape:pagecheckerboard="0"
     inkscape:deskcolor="#d1d1d1"
     inkscape:document-units="mm"
     showgrid="false"
     inkscape:zoom="0.57719187"
     inkscape:cx="265.94276"
     inkscape:cy="676.55145"
     inkscape:window-width="1920"
     inkscape:window-height="1027"
     inkscape:window-x="0"
     inkscape:window-y="25"
     inkscape:window-maximized="0"
     inkscape:current-layer="layer2" /><defs
     id="defs2"><inkscape:path-effect
       effect="spiro"
       id="path-effect3526"
       is_visible="true"
       lpeversion="1" /><inkscape:path-effect
       effect="spiro"
       id="path-effect3522"
       is_visible="true"
       lpeversion="1" /><inkscape:path-effect
       effect="spiro"
       id="path-effect3518"
       is_visible="true"
       lpeversion="1" /><inkscape:path-effect
       effect="spiro"
       id="path-effect3028"
       is_visible="true"
       lpeversion="1" /><inkscape:path-effect
       effect="spiro"
       id="path-effect3526-3"
       is_visible="true"
       lpeversion="1" /></defs><g
     inkscape:groupmode="layer"
     id="layer2"
     inkscape:label="SVG"><ellipse
       style="fill:#d09650;fill-opacity:1;stroke:none;stroke-width:0.130339;stroke-linecap:round;stroke-linejoin:bevel;stroke-miterlimit:13.2;paint-order:fill markers stroke"
       id="path384-0"
       cx="113.24496"
       cy="48.788006"
       rx="15.046239"
       ry="16.367353" /><path
       style="fill:#9db374;fill-opacity:1;fill-rule:nonzero;stroke:none;stroke-width:0.0650827;stroke-linecap:round;stroke-linejoin:bevel;stroke-miterlimit:13.2;stroke-opacity:1;paint-order:fill markers stroke"
       d="m 178.84837,47.884171 c -12.8134,0.577791 -25.2368,5.44618 -35.50234,13.049024 -5.44069,3.893704 -10.15506,8.694312 -14.64824,13.623132 -7.8892,9.41248 -12.93936,21.180255 -14.24231,33.398963 -2.0822,-6.85907 -4.98524,-12.580526 -8.56044,-19.139507 C 101.33934,80.734559 96.020577,72.97773 89.285725,66.546016 82.245316,59.257161 73.313562,53.302162 63.292921,51.270652 c -4.20006,-0.907087 -8.36712,-1.304203 -12.650637,-1.039045 -0.751946,-0.142933 -2.839095,0.284191 -2.410087,0.905949 2.472783,1.970013 5.523439,4.629446 7.493082,6.710593 15.700505,15.483596 28.176477,34.189868 36.433442,54.640181 11.642939,28.10606 18.654139,58.10672 20.638829,88.45997 0.12874,0.89511 0.15861,16.31391 0.70991,17.24356 1.13881,-1.26411 0.73465,-14.28578 1.17161,-16.0138 3.14973,-35.59652 11.74968,-70.70907 25.36763,-103.745773 2.9524,-7.82523 11.82356,-20.793311 17.35498,-28.036957 6.7235,-8.132598 15.52246,-16.026733 22.35275,-21.226404 0.53487,-0.266538 0.79686,-1.228942 -0.034,-1.252468 -0.28845,-0.04321 -0.58146,-0.0346 -0.87209,-0.03229 z"
       id="path6994"
       sodipodi:nodetypes="scccccccccccccccccss" /><path
       style="fill:#9db374;fill-opacity:1;fill-rule:nonzero;stroke:none;stroke-width:0.0713809;stroke-linecap:round;stroke-linejoin:bevel;stroke-miterlimit:13.2;stroke-opacity:1;paint-order:fill markers stroke"
       d="m 93.811661,151.07678 c -16.309753,4.54264 -10.461342,6.78687 5.753721,23.89389 1.641028,1.61602 2.226738,2.10644 3.317448,2.19843 3.59091,-2.04378 -6.789919,-26.74352 -9.071169,-26.09232 z"
       id="path8149"
       sodipodi:nodetypes="cccc" /><path
       style="fill:#9db374;fill-opacity:1;fill-rule:nonzero;stroke:none;stroke-width:0.0713809;stroke-linecap:round;stroke-linejoin:bevel;stroke-miterlimit:13.2;stroke-opacity:1;paint-order:fill markers stroke"
       d="m 51.157817,128.79711 c -1.624245,0.23456 -5.524317,2.40802 -5.614734,3.30958 -0.603178,1.40179 -1.127704,3.12258 0.02663,4.45015 6.426872,10.31864 8.866407,15.1482 14.633815,22.90362 4.784657,7.68812 17.688317,21.79651 24.240249,26.82943 1.09728,0.91634 5.265336,3.62481 6.782774,3.53878 0.709647,-0.5301 -2.461493,-3.51074 -2.698149,-4.09878 -12.943861,-17.10603 -24.839287,-36.11414 -33.518179,-55.28708 -0.783717,-0.83802 -2.676959,-1.64777 -3.852406,-1.6457 z"
       id="path8151"
       sodipodi:nodetypes="ccccccccc" /><path
       style="fill:#9db374;fill-opacity:1;fill-rule:nonzero;stroke:none;stroke-width:0.0713809;stroke-linecap:round;stroke-linejoin:bevel;stroke-miterlimit:13.2;stroke-opacity:1;paint-order:fill markers stroke"
       d="m 24.023237,141.28355 c 5.511828,11.26479 15.004749,21.98677 22.064891,32.24356 11.657036,14.43609 22.726263,24.35005 34.988547,32.53616 3.446222,2.13895 5.440521,1.79997 5.064022,0.8472 -18.878254,-21.92233 -40.463795,-49.26032 -50.998196,-70.42269 -4.56828,-5.81648 -11.661614,-0.8306 -11.119264,4.79577 z"
       id="path8153"
       sodipodi:nodetypes="cccccc" /><path
       style="fill:#9db374;fill-opacity:1;fill-rule:nonzero;stroke:none;stroke-width:0.0713809;stroke-linecap:round;stroke-linejoin:bevel;stroke-miterlimit:13.2;stroke-opacity:1;paint-order:fill markers stroke"
       d="m 21.698613,157.36816 c -4.430347,0.57571 -8.481009,4.78386 -5.607204,8.40693 6.732205,11.84615 31.759534,50.70422 54.346174,58.18406 0.933667,0.28561 0.311838,-1.25574 -0.260088,-1.7704 -1.881851,-2.14442 -3.924712,-2.84762 -7.472362,-6.42428 -15.760247,-16.55422 -25.292272,-33.56284 -37.489337,-56.86513 -0.697779,-1.28425 -2.236907,-1.42849 -3.517183,-1.53118 z"
       id="path8155"
       sodipodi:nodetypes="ccccccc" /><path
       style="fill:#9db374;fill-opacity:1;fill-rule:nonzero;stroke:none;stroke-width:0.0713809;stroke-linecap:round;stroke-linejoin:bevel;stroke-miterlimit:13.2;stroke-opacity:1;paint-order:fill markers stroke"
       d="m 13.091897,188.88905 c -0.734431,1.15395 -0.271718,3.44415 0.07474,4.82247 2.52515,8.73507 5.48657,11.2955 10.28887,18.63567 3.666658,4.61538 24.582771,33.6158 53.816313,46.25981 14.236022,6.27711 39.55068,11.50049 61.9316,-5.55764 2.32868,-1.47989 10.38972,-8.20889 2.4804,-4.92973 -11.2558,5.46892 -21.15997,7.90415 -32.69503,8.06652 -29.381027,1.94062 -56.301548,-27.30751 -66.79737,-39.15792 -4.3639,-5.82968 -12.627745,-18.45968 -18.053516,-28.23739 -2.577047,-4.63869 -8.907183,-2.23986 -11.046003,0.0982 z"
       id="path8157"
       sodipodi:nodetypes="cccccccccc" /><path
       style="fill:#d39040;fill-opacity:1;fill-rule:nonzero;stroke:none;stroke-width:0.0713809;stroke-linecap:round;stroke-linejoin:bevel;stroke-miterlimit:13.2;stroke-opacity:1;paint-order:fill markers stroke"
       d="m 189.45614,185.16713 c -30.50781,49.81353 -58.47748,62.63167 -93.145244,45.51261 45.877924,42.76989 94.415194,-25.63723 100.051354,-38.13638 3.02865,-7.24179 -1.82216,-11.72147 -6.90611,-7.37623 z"
       id="path9618"
       sodipodi:nodetypes="cccc" /><path
       style="fill:#d39040;fill-opacity:1;fill-rule:nonzero;stroke:none;stroke-width:0.0713809;stroke-linecap:round;stroke-linejoin:bevel;stroke-miterlimit:13.2;stroke-opacity:1;paint-order:fill markers stroke"
       d="m 185.02059,167.5916 c -11.93043,20.78682 -27.69322,39.40076 -31.96241,43.71022 -3.94047,4.41636 6.69283,-0.55777 11.63572,-4.59467 7.47595,-5.53319 38.84365,-39.50923 28.65634,-44.63874 -0.33935,-0.14209 -4.43006,-2.12897 -8.32965,5.52319 z"
       id="path9620"
       sodipodi:nodetypes="ccccc" /><path
       style="fill:#d39040;fill-opacity:1;fill-rule:nonzero;stroke:none;stroke-width:0.0713809;stroke-linecap:round;stroke-linejoin:bevel;stroke-miterlimit:13.2;stroke-opacity:1;paint-order:fill markers stroke"
       d="m 183.75033,143.65662 c -1.53237,-0.0603 -2.99924,1.07025 -4.51889,2.80512 -9.14002,15.99505 -26.47466,40.4735 -31.7103,46.03007 -5.2076,5.26309 -7.07152,7.1505 -6.3689,7.87624 0.80953,0.48107 6.90273,-2.78814 7.58725,-3.04295 13.19992,-7.58915 19.62348,-18.86353 27.8182,-28.87616 3.69106,-5.7737 7.04409,-9.79545 10.26153,-15.353 0.6478,-0.8452 1.61633,-2.84402 1.59299,-3.98018 0.18103,-1.49174 0.27424,-3.09474 -1.25714,-4.0712 -0.64277,-0.4848 -2.65899,-1.33762 -3.40474,-1.38794 z"
       id="path9622"
       sodipodi:nodetypes="cccccccccc" /><path
       style="fill:#d39040;fill-opacity:1;fill-rule:nonzero;stroke:none;stroke-width:0.0713809;stroke-linecap:round;stroke-linejoin:bevel;stroke-miterlimit:13.2;stroke-opacity:1;paint-order:fill markers stroke"
       d="m 167.15866,140.27655 c -1.07045,0.12242 -2.65413,1.48797 -3.19946,2.34903 -8.32867,15.79983 -18.40964,29.77986 -26.66699,42.90547 -0.27213,0.68175 0.81489,1.11333 1.51196,0.80569 12.06586,-8.52049 34.5963,-32.37362 33.9377,-42.92062 -0.42593,-2.21708 -3.53991,-3.17475 -5.58321,-3.13957 z"
       id="path9624"
       sodipodi:nodetypes="cccccc" /><path
       style="fill:#d39040;fill-opacity:1;fill-rule:nonzero;stroke:none;stroke-width:0.0751294;stroke-linecap:round;stroke-linejoin:bevel;stroke-miterlimit:13.2;stroke-opacity:1;paint-order:fill markers stroke"
       d="m 132.96742,160.48451 c -6.27106,12.36106 -13.17107,22.35346 -14.19844,30.73506 8.41391,-5.87895 25.4599,-26.08046 24.42946,-29.77743 0.24296,-2.3887 -8.09802,-6.45037 -10.23102,-0.95763 z"
       id="path9626"
       sodipodi:nodetypes="cccc" /></g></svg>
