<?xml version="1.0" encoding="UTF-8" standalone="no"?>
<!-- Created with Inkscape (http://www.inkscape.org/) -->

<svg
   width="210mm"
   height="297mm"
   viewBox="0 0 210 297"
   version="1.1"
   id="svg5"
   xml:space="preserve"
   inkscape:version="1.2 (dc2aeda, 2022-05-15)"
   sodipodi:docname="kenya.svg"
   xmlns:inkscape="http://www.inkscape.org/namespaces/inkscape"
   xmlns:sodipodi="http://sodipodi.sourceforge.net/DTD/sodipodi-0.dtd"
   xmlns="http://www.w3.org/2000/svg"
   xmlns:svg="http://www.w3.org/2000/svg"><sodipodi:namedview
     id="namedview7"
     pagecolor="#ffffff"
     bordercolor="#999999"
     borderopacity="1"
     inkscape:showpageshadow="0"
     inkscape:pageopacity="0"
     inkscape:pagecheckerboard="0"
     inkscape:deskcolor="#d1d1d1"
     inkscape:document-units="mm"
     showgrid="false"
     inkscape:zoom="0.35711279"
     inkscape:cx="200.21685"
     inkscape:cy="659.45551"
     inkscape:window-width="1440"
     inkscape:window-height="847"
     inkscape:window-x="0"
     inkscape:window-y="25"
     inkscape:window-maximized="0"
     inkscape:current-layer="layer2" /><defs
     id="defs2"><inkscape:path-effect
       effect="spiro"
       id="path-effect3606"
       is_visible="true"
       lpeversion="1" /><inkscape:path-effect
       effect="spiro"
       id="path-effect3602"
       is_visible="true"
       lpeversion="1" /><inkscape:path-effect
       effect="spiro"
       id="path-effect3598"
       is_visible="true"
       lpeversion="1" /><inkscape:path-effect
       effect="spiro"
       id="path-effect3594"
       is_visible="true"
       lpeversion="1" /><inkscape:path-effect
       effect="spiro"
       id="path-effect3563"
       is_visible="true"
       lpeversion="1" /><inkscape:path-effect
       effect="spiro"
       id="path-effect3533"
       is_visible="true"
       lpeversion="1" /><inkscape:path-effect
       effect="spiro"
       id="path-effect3474"
       is_visible="true"
       lpeversion="1" /><inkscape:path-effect
       effect="spiro"
       id="path-effect3444"
       is_visible="true"
       lpeversion="1" /><inkscape:path-effect
       effect="spiro"
       id="path-effect3393"
       is_visible="true"
       lpeversion="1" /><inkscape:path-effect
       effect="spiro"
       id="path-effect3389"
       is_visible="true"
       lpeversion="1" /><inkscape:path-effect
       effect="spiro"
       id="path-effect3385"
       is_visible="true"
       lpeversion="1" /><inkscape:path-effect
       effect="spiro"
       id="path-effect3355"
       is_visible="true"
       lpeversion="1" /><inkscape:path-effect
       effect="spiro"
       id="path-effect3347"
       is_visible="true"
       lpeversion="1" /><inkscape:path-effect
       effect="spiro"
       id="path-effect3317"
       is_visible="true"
       lpeversion="1" /><inkscape:path-effect
       effect="spiro"
       id="path-effect3237"
       is_visible="true"
       lpeversion="1" /><inkscape:path-effect
       effect="spiro"
       id="path-effect3237-6"
       is_visible="true"
       lpeversion="1" /><inkscape:path-effect
       effect="spiro"
       id="path-effect3317-7"
       is_visible="true"
       lpeversion="1" /><inkscape:path-effect
       effect="spiro"
       id="path-effect3355-9"
       is_visible="true"
       lpeversion="1" /><inkscape:path-effect
       effect="spiro"
       id="path-effect3393-4"
       is_visible="true"
       lpeversion="1" /><inkscape:path-effect
       effect="spiro"
       id="path-effect3393-1"
       is_visible="true"
       lpeversion="1" /><inkscape:path-effect
       effect="spiro"
       id="path-effect3393-8"
       is_visible="true"
       lpeversion="1" /><inkscape:path-effect
       effect="spiro"
       id="path-effect3444-2"
       is_visible="true"
       lpeversion="1" /><inkscape:path-effect
       effect="spiro"
       id="path-effect3474-9"
       is_visible="true"
       lpeversion="1" /><inkscape:path-effect
       effect="spiro"
       id="path-effect3533-5"
       is_visible="true"
       lpeversion="1" /><inkscape:path-effect
       effect="spiro"
       id="path-effect3563-7"
       is_visible="true"
       lpeversion="1" /><inkscape:path-effect
       effect="spiro"
       id="path-effect3606-8"
       is_visible="true"
       lpeversion="1" /></defs><g
     inkscape:groupmode="layer"
     id="layer2"
     inkscape:label="SVG"><path
       id="path3604-8"
       style="fill:none;fill-opacity:1;stroke:#000000;stroke-width:2.08933;stroke-linecap:round;stroke-linejoin:bevel;stroke-miterlimit:13.2;stroke-dasharray:none;stroke-opacity:1;paint-order:fill markers stroke"
       d="m 143.72989,91.897925 -3.93066,4.97474 m 8.72114,-3.930654 -5.95739,8.721149 m 29.79195,-57.038837 c -12.72916,13.056982 -22.49192,28.989267 -28.34599,46.259072 -0.13323,0.393024 -0.26446,0.786725 -0.39369,1.181081 m 28.73968,-47.243305 c -2.41194,17.938436 -10.84437,35.014099 -23.62166,47.833846 -0.0655,0.06573 -0.13112,0.131341 -0.19685,0.196847 m -82.266311,0.02363 3.930653,4.974724 m -8.721134,-3.930639 5.957394,8.721131 M 37.64507,45.601818 c 12.729139,13.057 22.491897,28.98928 28.345985,46.259077 0.133227,0.393025 0.26446,0.786726 0.393692,1.181082 M 37.64507,45.798667 c 2.412029,17.938415 10.844438,35.014046 23.621653,47.833851 0.06551,0.06573 0.131123,0.131341 0.196848,0.196847 m 104.400439,150.268105 -4.27274,3.29827 m -21.47619,-36.43082 21.41427,36.33955 m -18.75318,-42.33641 23.16282,38.97949 m -121.052548,0.89002 4.272752,3.29828 M 70.635392,211.70503 49.221115,248.04458 M 67.974289,205.70817 44.811482,244.68765 M 102.4618,170.09003 c -11.590577,23.49292 -11.544649,52.39216 0.12054,75.84813 0.0544,0.10934 0.10899,0.21857 0.16384,0.32768 m -0.11267,0.0204 -0.17275,-76.13809 m 5.9e-4,-107.251878 c -11.590887,23.49283 -11.544959,52.392268 0.12054,75.848138 0.0544,0.10934 0.10899,0.21856 0.16384,0.32767 m -0.11267,0.0206 -0.16007,-76.171293 m 6.0173,183.064173 c 11.59026,-23.49302 11.54434,-52.39205 -0.12054,-75.84811 -0.0544,-0.10935 -0.10899,-0.21858 -0.16384,-0.32769 m 0.11267,-0.0206 0.15927,76.18281 m 0.0129,-183.075619 c 11.59089,23.49283 11.54496,52.392269 -0.12054,75.848139 -0.0544,0.10934 -0.10899,0.21856 -0.16384,0.32767 m 0.11266,0.0204 0.16008,-76.136995 m -3.31146,103.917395 c 3.17052,0.0455 6.34027,-1.21436 8.61438,-3.42405 2.27411,-2.20969 3.62457,-5.34193 3.67013,-8.51246 0.0455,-3.17052 -1.21437,-6.34027 -3.42405,-8.61438 -2.20969,-2.27411 -5.34194,-3.62457 -8.51246,-3.67012 -3.17052,-0.0455 -6.340275,1.21436 -8.614384,3.42405 -2.274109,2.20969 -3.624568,5.34193 -3.670121,8.51246 -0.04555,3.17052 1.214361,6.34027 3.424048,8.61438 2.209687,2.27411 5.341937,3.62457 8.512457,3.67012 z m 38.57769,34.86158 c -8.03422,-14.04804 -12.4026,-30.17188 -12.55863,-46.35434 -0.15603,-16.18245 3.90064,-32.38752 11.66249,-46.58787 0.26088,-0.47728 0.52584,-0.95232 0.79486,-1.42505 m -77.381204,94.0871 c 8.034152,-14.04807 12.402489,-30.17189 12.558519,-46.35433 0.156031,-16.18244 -3.900593,-32.3875 -11.662374,-46.58787 -0.260876,-0.47728 -0.525841,-0.95232 -0.794857,-1.42506 M 105.23818,56.056228 c 16.48844,12.643925 29.7087,29.513522 38.04456,48.546412 8.33586,19.03289 11.76963,40.18869 9.88151,60.88102 -3.09175,33.88318 -20.87633,66.17036 -47.86228,86.89202 m -0.0898,-196.319807 c -16.464574,12.65144 -29.662349,29.518276 -37.982796,48.542247 -8.320447,19.02396 -11.74598,40.16485 -9.858581,60.84283 3.094558,33.90337 20.896115,66.20855 47.904587,86.93431"
       sodipodi:nodetypes="cccccsccsccccccsccscccccccccccccccccccccccccccccccccssscsccsccsccsc"
       inkscape:original-d="m 143.72989,91.897925 c -1.31064,1.65867 -2.62087,3.316906 -3.93066,4.97474 m 8.72114,-3.930654 c -1.96576,2.887002 -3.97203,5.814521 -5.95739,8.721149 m 29.79195,-57.038837 c -9.44909,15.354498 -18.89775,30.839809 -28.34599,46.259072 -9.44823,15.419275 -0.26288,0.787805 -0.39369,1.181081 m 28.73968,-47.243305 c -8.00554,16.010655 -15.7482,31.889647 -23.62166,47.833846 -7.87346,15.944203 -0.13163,0.131628 -0.19685,0.196847 m -82.266311,0.02363 c 1.310641,1.65867 2.620862,3.316906 3.930653,4.974724 m -8.721134,-3.930639 c 1.96575,2.886987 3.97202,5.814506 5.957394,8.721131 M 37.64507,45.601818 c 9.449087,15.354498 18.897746,30.839798 28.345985,46.259077 9.448238,15.419265 0.262886,0.787806 0.393692,1.181082 M 37.64507,45.798667 c 8.00554,16.010655 15.748194,31.889652 23.621653,47.833851 7.873459,15.944182 0.131659,0.131627 0.196848,0.196847 M 165.86401,244.09747 c -1.44965,1.09985 -2.84891,2.19927 -4.27274,3.29827 m -21.47619,-36.43082 c 7.74549,12.99359 13.69291,23.34682 21.41427,36.33955 m -18.75318,-42.33641 c 7.7455,12.99359 15.44145,25.98676 23.16282,38.97949 m -121.052548,0.89002 c 1.449663,1.09985 2.848927,2.19928 4.272752,3.29828 m 21.476198,-36.43082 c -7.745494,12.99358 -13.692915,23.34681 -21.414277,36.33955 m 18.753174,-42.33641 c -7.745494,12.99358 -15.441445,25.98675 -23.162807,38.97948 M 102.4618,170.09003 c 0.0943,25.22767 0.08,50.56499 0.12054,75.84813 0.0407,25.28313 0.10881,0.21802 0.16384,0.32768 m -0.11267,0.0204 c -4.3e-4,-25.69195 -0.17319,-50.44699 -0.17275,-76.13809 m 5.9e-4,-107.251878 c 0.0943,25.227672 0.08,50.565008 0.12054,75.848138 0.0407,25.28315 0.10881,0.21803 0.16384,0.32767 m -0.11267,0.0206 c -4.3e-4,-25.69193 -0.16055,-50.480191 -0.16007,-76.171293 m 6.0173,183.064173 c -0.0943,-25.22766 -0.08,-50.56498 -0.12054,-75.84811 -0.0407,-25.28315 -0.10881,-0.21803 -0.16384,-0.32769 m 0.11267,-0.0206 c 4.3e-4,25.69194 0.15975,50.49171 0.15927,76.18281 m 0.0129,-183.075619 c -0.0944,25.227671 -0.08,50.564999 -0.12054,75.848139 -0.0407,25.28313 -0.10881,0.21801 -0.16384,0.32767 m 0.11266,0.0204 c 4.4e-4,-25.69195 0.16056,-50.445896 0.16008,-76.136995 m -3.31146,103.917395 c -4.2e-4,8.23565 0.34842,-15.98452 0.348,-24.22101 -4.1e-4,-8.2365 -0.34758,15.98536 -0.348,24.22101 z m 38.57769,34.86158 c -4.3e-4,-31.27162 -0.81741,-61.59057 -0.89614,-92.94221 -0.0788,-31.351637 0.31941,-0.31625 0.79486,-1.42505 m -77.381204,94.0871 c 4.26e-4,-31.27161 0.817408,-61.59057 0.896145,-92.9422 0.07875,-31.351654 -0.319412,-0.31625 -0.794857,-1.42506 M 105.23818,56.056228 c -2.1e-4,33.029364 47.92607,76.398282 47.92607,109.427432 0,32.36127 -47.86249,54.53095 -47.86228,86.89202 m -0.0898,-196.319807 c 2.1e-4,33.029365 -47.841374,76.355937 -47.841377,109.385077 -2e-6,32.36128 47.904797,54.57324 47.904587,86.93431"
       inkscape:path-effect="#path-effect3606-8" /><path
       style="fill:#000000;fill-opacity:1;stroke:#000000;stroke-width:1.74671;stroke-linecap:round;stroke-linejoin:bevel;stroke-miterlimit:13.2;stroke-dasharray:none;stroke-opacity:1;paint-order:fill markers stroke"
       d="m 66.32946,110.24802 c -2.087728,4.15763 -3.132739,8.86942 -4.44069,13.35108 -6.205851,24.2665 -5.036052,50.51895 4.158792,73.8713 0.641003,1.50854 1.379516,-0.5689 1.713671,-1.16638 10.482717,-21.05847 12.893456,-46.05115 6.103275,-68.62161 -1.812067,-5.99411 -3.975035,-12.00839 -7.298976,-17.33372 -0.06165,-0.0574 -0.145625,-0.12038 -0.236071,-0.10061 z"
       id="path3709" /><path
       style="fill:#000000;fill-opacity:1;stroke:#000000;stroke-width:1.74671;stroke-linecap:round;stroke-linejoin:bevel;stroke-miterlimit:13.2;stroke-dasharray:none;stroke-opacity:1;paint-order:fill markers stroke"
       d="m 143.88948,109.80989 c -2.46031,3.35859 -3.86678,7.47288 -5.49484,11.30518 -3.81071,10.65919 -6.30088,21.93876 -5.90012,33.3135 -0.19456,8.87449 0.99674,17.73661 3.59341,26.22643 1.93563,6.24238 4.23749,14.11168 7.76508,19.63038 1.27895,-1.09167 1.28087,-4.7808 1.99692,-6.29373 3.83967,-11.19766 6.13555,-22.91104 6.45905,-34.75551 0.7907,-16.56979 -1.88051,-33.343 -7.9189,-48.79579 -0.13837,-0.18904 -0.20673,-0.62662 -0.5006,-0.63046 z"
       id="path3711"
       sodipodi:nodetypes="ccccccccc" /></g></svg>
