<?xml version="1.0" encoding="UTF-8" standalone="no"?>
<!-- Created with Inkscape (http://www.inkscape.org/) -->

<svg
   width="288.97153mm"
   height="443.26276mm"
   viewBox="0 0 288.97153 443.26276"
   version="1.1"
   id="svg5"
   xml:space="preserve"
   sodipodi:docname="kenyaG.svg"
   inkscape:version="1.2 (dc2aeda, 2022-05-15)"
   xmlns:inkscape="http://www.inkscape.org/namespaces/inkscape"
   xmlns:sodipodi="http://sodipodi.sourceforge.net/DTD/sodipodi-0.dtd"
   xmlns="http://www.w3.org/2000/svg"
   xmlns:svg="http://www.w3.org/2000/svg"><sodipodi:namedview
     id="namedview7"
     pagecolor="#ffffff"
     bordercolor="#999999"
     borderopacity="1"
     inkscape:showpageshadow="0"
     inkscape:pageopacity="0"
     inkscape:pagecheckerboard="0"
     inkscape:deskcolor="#d1d1d1"
     inkscape:document-units="mm"
     showgrid="false"
     inkscape:zoom="0.35711279"
     inkscape:cx="617.45198"
     inkscape:cy="707.05952"
     inkscape:window-width="1440"
     inkscape:window-height="847"
     inkscape:window-x="0"
     inkscape:window-y="25"
     inkscape:window-maximized="0"
     inkscape:current-layer="layer2" /><defs
     id="defs2"><inkscape:path-effect
       effect="spiro"
       id="path-effect3606"
       is_visible="true"
       lpeversion="1" /><inkscape:path-effect
       effect="spiro"
       id="path-effect3602"
       is_visible="true"
       lpeversion="1" /><inkscape:path-effect
       effect="spiro"
       id="path-effect3598"
       is_visible="true"
       lpeversion="1" /><inkscape:path-effect
       effect="spiro"
       id="path-effect3594"
       is_visible="true"
       lpeversion="1" /><inkscape:path-effect
       effect="spiro"
       id="path-effect3563"
       is_visible="true"
       lpeversion="1" /><inkscape:path-effect
       effect="spiro"
       id="path-effect3533"
       is_visible="true"
       lpeversion="1" /><inkscape:path-effect
       effect="spiro"
       id="path-effect3474"
       is_visible="true"
       lpeversion="1" /><inkscape:path-effect
       effect="spiro"
       id="path-effect3444"
       is_visible="true"
       lpeversion="1" /><inkscape:path-effect
       effect="spiro"
       id="path-effect3393"
       is_visible="true"
       lpeversion="1" /><inkscape:path-effect
       effect="spiro"
       id="path-effect3389"
       is_visible="true"
       lpeversion="1" /><inkscape:path-effect
       effect="spiro"
       id="path-effect3385"
       is_visible="true"
       lpeversion="1" /><inkscape:path-effect
       effect="spiro"
       id="path-effect3355"
       is_visible="true"
       lpeversion="1" /><inkscape:path-effect
       effect="spiro"
       id="path-effect3347"
       is_visible="true"
       lpeversion="1" /><inkscape:path-effect
       effect="spiro"
       id="path-effect3317"
       is_visible="true"
       lpeversion="1" /><inkscape:path-effect
       effect="spiro"
       id="path-effect3237"
       is_visible="true"
       lpeversion="1" /><inkscape:path-effect
       effect="spiro"
       id="path-effect3237-6"
       is_visible="true"
       lpeversion="1" /><inkscape:path-effect
       effect="spiro"
       id="path-effect3317-7"
       is_visible="true"
       lpeversion="1" /><inkscape:path-effect
       effect="spiro"
       id="path-effect3355-9"
       is_visible="true"
       lpeversion="1" /><inkscape:path-effect
       effect="spiro"
       id="path-effect3393-4"
       is_visible="true"
       lpeversion="1" /><inkscape:path-effect
       effect="spiro"
       id="path-effect3393-1"
       is_visible="true"
       lpeversion="1" /><inkscape:path-effect
       effect="spiro"
       id="path-effect3393-8"
       is_visible="true"
       lpeversion="1" /><inkscape:path-effect
       effect="spiro"
       id="path-effect3444-2"
       is_visible="true"
       lpeversion="1" /><inkscape:path-effect
       effect="spiro"
       id="path-effect3474-9"
       is_visible="true"
       lpeversion="1" /><inkscape:path-effect
       effect="spiro"
       id="path-effect3533-5"
       is_visible="true"
       lpeversion="1" /><inkscape:path-effect
       effect="spiro"
       id="path-effect3563-7"
       is_visible="true"
       lpeversion="1" /><inkscape:path-effect
       effect="spiro"
       id="path-effect3606-8"
       is_visible="true"
       lpeversion="1" /></defs><g
     inkscape:groupmode="layer"
     id="layer2"
     inkscape:label="SVG"
     transform="translate(30.080207,189.84242)"><path
       id="path3604-8"
       style="fill:none;fill-opacity:1;stroke:#607833;stroke-width:4.41345;stroke-linecap:round;stroke-linejoin:bevel;stroke-miterlimit:13.2;stroke-dasharray:none;stroke-opacity:1;paint-order:fill markers stroke"
       d="m 196.21772,-87.775998 -8.30304,10.50853 m 18.42234,-8.303027 -12.58425,18.422361 M 256.68461,-187.6357 c -26.88881,27.58126 -47.51146,61.23627 -59.87743,97.716631 -0.28142,0.830216 -0.55863,1.661861 -0.83162,2.49489 m 60.70905,-99.795701 c -5.09499,37.89274 -22.90746,73.96296 -49.89786,101.043147 -0.13838,0.138836 -0.27698,0.277441 -0.41582,0.415815 m -173.77752,0.04992 8.303023,10.508496 m -18.422328,-8.302997 12.584267,18.422322 M -27.873482,-185.57086 c 26.88875328,27.58131 47.511386,61.2363 59.877425,97.71664 0.281426,0.830217 0.558639,1.661862 0.831626,2.494892 m -60.709051,-99.795712 c 5.09512,37.89271 22.9075531,73.96288 49.897852,101.043157 0.138375,0.138836 0.27698,0.277441 0.415817,0.415815 M 242.97334,233.72691 233.9477,240.6941 m -45.36582,-76.95564 45.23502,76.76285 m -39.6138,-89.43048 48.92863,82.3394 m -255.708699,1.88005 9.0256656,6.96722 M 41.814537,165.30186 -3.4205035,242.0647 M 36.193282,152.63422 -12.735313,234.9736 M 109.04393,77.395256 c -24.484294,49.625734 -24.387279,110.672234 0.25462,160.219894 0.11487,0.23097 0.23024,0.4617 0.3461,0.69218 m -0.23801,0.043 -0.36491,-160.832388 m 0.001,-226.556472 c -24.48479,49.625584 -24.387775,110.6724 0.25462,160.219911 0.11487,0.230968 0.23024,0.46169 0.3461,0.692164 m -0.23801,0.04351 -0.33812,-160.902475 m 12.71081,386.70066 c 24.4832,-49.62606 24.38619,-110.67186 -0.25463,-160.219853 -0.11487,-0.230979 -0.23023,-0.461711 -0.34609,-0.692195 m 0.238,-0.0436 0.33644,160.926878 m 0.0272,-386.72484 c 24.48421,49.625789 24.38719,110.672258 -0.25463,160.219973 -0.11487,0.230968 -0.23023,0.46169 -0.34609,0.692163 m 0.23798,0.04309 0.33815,-160.830076 m -6.99505,219.512778 c 6.69734,0.09622 13.39305,-2.565191 18.19683,-7.232886 4.80378,-4.667695 7.65646,-11.284183 7.75268,-17.981525 0.0962,-6.697342 -2.56519,-13.393054 -7.23288,-18.196831 -4.6677,-4.803777 -11.28419,-7.656456 -17.98153,-7.75268 -6.69734,-0.09622 -13.39305,2.565191 -18.196831,7.232886 -4.803777,4.667695 -7.656456,11.284183 -7.75268,17.981525 -0.09622,6.697342 2.565191,13.393054 7.232886,18.196831 4.667695,4.803777 11.284185,7.656456 17.981525,7.75268 z m 81.49064,73.640822 c -16.97127,-29.67479 -26.19892,-63.734412 -26.52851,-97.917865 -0.32959,-34.183453 8.2396,-68.414674 24.63553,-98.411182 0.55107,-1.008185 1.11078,-2.011649 1.67904,-3.010243 M 32.578089,143.64861 C 49.54925,113.97379 58.776826,79.914184 59.106422,45.730755 59.436017,11.547327 50.866898,-22.683872 34.471086,-52.680418 c -0.551068,-1.008193 -1.110775,-2.011663 -1.679038,-3.010265 M 114.90869,-163.4872 c 34.82981,26.70874 62.756,62.3437 80.36449,102.548357 17.60848,40.204652 24.86189,84.893697 20.87347,128.60371 -6.53094,71.574063 -44.09869,139.776783 -101.10321,183.548743 m -0.18969,-414.70156 C 80.074351,-136.76333 52.195666,-101.1342 34.619739,-60.9484 17.043813,-20.762598 9.8077929,23.894942 13.794694,67.574645 20.331569,139.19137 57.935179,207.43209 114.98727,251.21273"
       sodipodi:nodetypes="cccccsccsccccccsccscccccccccccccccccccccccccccccccccssscsccsccsccsc"
       inkscape:original-d="m 196.21772,-87.775998 c -2.76857,3.503738 -5.53627,7.006558 -8.30304,10.50853 m 18.42234,-8.303027 c -4.15243,6.098439 -8.39043,12.282465 -12.58425,18.422361 M 256.68461,-187.6357 c -19.96005,32.4345 -39.91919,65.14533 -59.87743,97.716631 -19.95823,32.571331 -0.55531,1.664143 -0.83162,2.49489 m 60.70905,-99.795701 c -16.91072,33.82055 -33.26615,67.36298 -49.89786,101.043147 -16.63173,33.680177 -0.27805,0.278048 -0.41582,0.415815 M 32.59341,-85.711 c 2.76857,3.503737 5.53625,7.006557 8.303023,10.508496 m -18.422328,-8.302997 c 4.152407,6.098407 8.390406,12.282432 12.584267,18.422322 M -27.873482,-185.57086 c 19.9600404,32.4345 39.919176,65.1453 59.877425,97.71664 19.958247,32.571312 0.555314,1.664144 0.831626,2.494892 m -60.709051,-99.795712 c 16.910724,33.82055 33.266133,67.36299 49.897852,101.043157 16.631718,33.680134 0.278113,0.278047 0.415817,0.415815 M 242.97334,233.72691 c -3.06221,2.32331 -6.01798,4.64569 -9.02564,6.96719 m -45.36582,-76.95564 c 16.36139,27.44736 28.92459,49.3173 45.23502,76.76285 m -39.6138,-89.43048 c 16.36143,27.44737 32.61818,54.89384 48.92863,82.3394 m -255.708699,1.88005 c 3.0622346,2.32331 6.0180097,4.64572 9.0256656,6.96722 M 41.814537,165.30186 C 25.453128,192.74919 12.889929,214.61913 -3.4205035,242.0647 M 36.193282,152.63422 C 19.831874,180.08157 3.575119,207.52804 -12.735313,234.9736 M 109.04393,77.395256 c 0.1992,53.290364 0.16899,106.812354 0.25462,160.219894 0.086,53.40751 0.22985,0.46054 0.3461,0.69218 m -0.23801,0.043 c -9e-4,-54.27109 -0.36584,-106.56309 -0.36491,-160.832388 m 0.001,-226.556472 c 0.19919,53.290372 0.16899,106.812393 0.25462,160.219911 0.086,53.407557 0.22985,0.460563 0.3461,0.692164 m -0.23801,0.04351 c -9e-4,-54.271 -0.33914,-106.633167 -0.33812,-160.902475 m 12.71081,386.70066 c -0.1992,-53.29035 -0.16899,-106.81232 -0.25463,-160.219853 -0.086,-53.407557 -0.22985,-0.460555 -0.34609,-0.692195 m 0.238,-0.0436 c 9.1e-4,54.271098 0.33745,106.657558 0.33644,160.926878 m 0.0272,-386.72484 c -0.19941,53.29043 -0.16899,106.812434 -0.25463,160.219973 -0.086,53.407515 -0.22985,0.46052 -0.34609,0.692163 m 0.23798,0.04309 c 9.3e-4,-54.271095 0.33916,-106.560777 0.33815,-160.830076 m -6.99505,219.512778 c -8.9e-4,17.396806 0.73599,-33.765338 0.7351,-51.163922 -8.6e-4,-17.3985975 -0.73422,33.767117 -0.7351,51.163922 z m 81.49064,73.640822 c -9e-4,-66.05747 -1.72667,-130.102544 -1.89298,-196.329047 -0.16646,-66.226493 0.67471,-0.668039 1.67904,-3.010243 M 32.578089,143.64861 c 8.99e-4,-66.057458 1.726674,-130.102546 1.892997,-196.329028 0.166349,-66.226532 -0.674719,-0.668039 -1.679038,-3.010265 M 114.90869,-163.4872 c -4.4e-4,69.770493 101.23796,161.3820238 101.23796,231.152067 0,68.359223 -101.10365,115.189953 -101.10321,183.548743 m -0.18969,-414.70156 C 114.85419,-93.717455 13.794701,-2.1953741 13.794694,67.574645 13.79469,135.93388 114.98771,182.85394 114.98727,251.21273"
       inkscape:path-effect="#path-effect3606-8" /><path
       style="fill:#607833;fill-opacity:1;stroke:#607833;stroke-width:3.68972;stroke-linecap:round;stroke-linejoin:bevel;stroke-miterlimit:13.2;stroke-dasharray:none;stroke-opacity:1;paint-order:fill markers stroke"
       d="m 32.718782,-49.013668 c -4.41007,8.782485 -6.617528,18.735564 -9.380414,28.202522 -13.109101,51.260012 -10.638044,106.715095 8.784939,156.044086 1.35404,3.1866 2.914059,-1.20173 3.61992,-2.46383 22.143457,-44.483444 27.235847,-97.277428 12.892421,-144.954763 -3.827769,-12.661823 -8.396775,-25.366253 -15.418194,-36.615362 -0.130227,-0.121253 -0.307614,-0.254288 -0.49867,-0.212527 z"
       id="path3709" /><path
       style="fill:#607833;fill-opacity:1;stroke:#607833;stroke-width:3.68972;stroke-linecap:round;stroke-linejoin:bevel;stroke-miterlimit:13.2;stroke-dasharray:none;stroke-opacity:1;paint-order:fill markers stroke"
       d="m 196.55483,-49.939163 c -5.1971,7.09461 -8.16809,15.785543 -11.60717,23.880808 -8.04967,22.5162342 -13.30984,46.342945 -12.46329,70.370697 -0.41098,18.746273 2.1055,37.466416 7.59065,55.400123 4.08878,13.186265 8.95117,29.809185 16.40277,41.466775 2.70164,-2.30602 2.70568,-10.09886 4.21825,-13.29473 8.11084,-23.6537 12.96061,-48.396778 13.64395,-73.416771 1.67027,-35.001653 -3.97234,-70.433005 -16.7277,-103.075134 -0.29229,-0.399323 -0.43669,-1.323658 -1.05746,-1.331768 z"
       id="path3711"
       sodipodi:nodetypes="ccccccccc" /></g></svg>
