<?xml version="1.0" encoding="UTF-8" standalone="no"?>
<!-- Created with Inkscape (http://www.inkscape.org/) -->

<svg
   width="203.4798mm"
   height="312.12424mm"
   viewBox="0 0 203.4798 312.12424"
   version="1.1"
   id="svg5"
   xml:space="preserve"
   sodipodi:docname="kenya1.svg"
   inkscape:version="1.2 (dc2aeda, 2022-05-15)"
   xmlns:inkscape="http://www.inkscape.org/namespaces/inkscape"
   xmlns:sodipodi="http://sodipodi.sourceforge.net/DTD/sodipodi-0.dtd"
   xmlns="http://www.w3.org/2000/svg"
   xmlns:svg="http://www.w3.org/2000/svg"><sodipodi:namedview
     id="namedview7"
     pagecolor="#ffffff"
     bordercolor="#999999"
     borderopacity="1"
     inkscape:showpageshadow="0"
     inkscape:pageopacity="0"
     inkscape:pagecheckerboard="0"
     inkscape:deskcolor="#d1d1d1"
     inkscape:document-units="mm"
     showgrid="false"
     inkscape:zoom="0.35711279"
     inkscape:cx="617.45198"
     inkscape:cy="550.24632"
     inkscape:window-width="1440"
     inkscape:window-height="847"
     inkscape:window-x="0"
     inkscape:window-y="25"
     inkscape:window-maximized="0"
     inkscape:current-layer="layer2" /><defs
     id="defs2"><inkscape:path-effect
       effect="spiro"
       id="path-effect3606"
       is_visible="true"
       lpeversion="1" /><inkscape:path-effect
       effect="spiro"
       id="path-effect3602"
       is_visible="true"
       lpeversion="1" /><inkscape:path-effect
       effect="spiro"
       id="path-effect3598"
       is_visible="true"
       lpeversion="1" /><inkscape:path-effect
       effect="spiro"
       id="path-effect3594"
       is_visible="true"
       lpeversion="1" /><inkscape:path-effect
       effect="spiro"
       id="path-effect3563"
       is_visible="true"
       lpeversion="1" /><inkscape:path-effect
       effect="spiro"
       id="path-effect3533"
       is_visible="true"
       lpeversion="1" /><inkscape:path-effect
       effect="spiro"
       id="path-effect3474"
       is_visible="true"
       lpeversion="1" /><inkscape:path-effect
       effect="spiro"
       id="path-effect3444"
       is_visible="true"
       lpeversion="1" /><inkscape:path-effect
       effect="spiro"
       id="path-effect3393"
       is_visible="true"
       lpeversion="1" /><inkscape:path-effect
       effect="spiro"
       id="path-effect3389"
       is_visible="true"
       lpeversion="1" /><inkscape:path-effect
       effect="spiro"
       id="path-effect3385"
       is_visible="true"
       lpeversion="1" /><inkscape:path-effect
       effect="spiro"
       id="path-effect3355"
       is_visible="true"
       lpeversion="1" /><inkscape:path-effect
       effect="spiro"
       id="path-effect3347"
       is_visible="true"
       lpeversion="1" /><inkscape:path-effect
       effect="spiro"
       id="path-effect3317"
       is_visible="true"
       lpeversion="1" /><inkscape:path-effect
       effect="spiro"
       id="path-effect3237"
       is_visible="true"
       lpeversion="1" /><inkscape:path-effect
       effect="spiro"
       id="path-effect3237-6"
       is_visible="true"
       lpeversion="1" /><inkscape:path-effect
       effect="spiro"
       id="path-effect3317-7"
       is_visible="true"
       lpeversion="1" /><inkscape:path-effect
       effect="spiro"
       id="path-effect3355-9"
       is_visible="true"
       lpeversion="1" /><inkscape:path-effect
       effect="spiro"
       id="path-effect3393-4"
       is_visible="true"
       lpeversion="1" /><inkscape:path-effect
       effect="spiro"
       id="path-effect3393-1"
       is_visible="true"
       lpeversion="1" /><inkscape:path-effect
       effect="spiro"
       id="path-effect3393-8"
       is_visible="true"
       lpeversion="1" /><inkscape:path-effect
       effect="spiro"
       id="path-effect3444-2"
       is_visible="true"
       lpeversion="1" /><inkscape:path-effect
       effect="spiro"
       id="path-effect3474-9"
       is_visible="true"
       lpeversion="1" /><inkscape:path-effect
       effect="spiro"
       id="path-effect3533-5"
       is_visible="true"
       lpeversion="1" /><inkscape:path-effect
       effect="spiro"
       id="path-effect3563-7"
       is_visible="true"
       lpeversion="1" /><inkscape:path-effect
       effect="spiro"
       id="path-effect3606-8"
       is_visible="true"
       lpeversion="1" /></defs><g
     inkscape:groupmode="layer"
     id="layer2"
     inkscape:label="SVG"
     transform="translate(30.080208,58.703884)"><path
       id="path3604-8"
       style="fill:none;fill-opacity:1;stroke:#000000;stroke-width:3.10774;stroke-linecap:round;stroke-linejoin:bevel;stroke-miterlimit:13.2;stroke-dasharray:none;stroke-opacity:1;paint-order:fill markers stroke"
       d="m 129.26786,13.166362 -5.8466,7.399599 m 12.97212,-5.84659 -8.86122,12.972136 m 44.31356,-84.841521 c -18.93377,19.42142 -33.45523,43.119639 -42.16279,68.807329 -0.19817,0.584598 -0.39337,1.170202 -0.58559,1.756781 m 42.74838,-70.271311 c -3.58767,26.682228 -16.13034,52.0811294 -35.13566,71.149702 -0.0974,0.09776 -0.19504,0.195361 -0.2928,0.292797 m -122.365734,0.03515 5.846588,7.399575 M 6.9260006,16.17344 15.787233,29.145549 m -44.313571,-84.841603 c 18.9337582,19.421429 33.4552192,43.119648 42.16279,68.807336 0.198166,0.584599 0.393367,1.170203 0.585591,1.756782 m -42.748381,-70.271318 c 3.587738,26.682212 16.130392,52.0810892 35.1356564,71.149709 0.097437,0.09776 0.1950364,0.195361 0.2927984,0.292797 M 162.19091,239.55318 l -6.35542,4.90596 m -31.94442,-54.18845 31.85232,54.05269 m -27.89413,-62.97262 34.45318,57.97943 m -180.057713,1.32384 6.355438,4.90598 m 31.944433,-54.18845 -31.85233,54.05269 m 27.894114,-62.97263 -34.453153,57.97942 M 67.884288,129.47198 c -17.240283,34.94416 -17.171969,77.92992 0.179295,112.81911 0.08089,0.16264 0.162119,0.32511 0.243701,0.4874 m -0.167589,0.0303 -0.256954,-113.2504 m 8.77e-4,-159.530121 c -17.240655,34.944049 -17.17234,77.930046 0.179296,112.81912 0.08088,0.162637 0.162119,0.3251 0.243701,0.487388 m -0.167589,0.03064 -0.238094,-113.299751 M 76.85127,242.36159 c 17.23997,-34.94425 17.171656,-77.9298 -0.179295,-112.81908 -0.08089,-0.16264 -0.162119,-0.32511 -0.243701,-0.48741 m 0.167589,-0.0307 0.236904,113.31693 m 0.01919,-272.312953 c 17.240661,34.9440653 17.172346,77.930082 -0.179298,112.819171 -0.08088,0.162637 -0.162119,0.3251 -0.243701,0.487388 m 0.167574,0.03034 0.238109,-113.248772 M 71.909062,124.6868 c 4.715944,0.0678 9.430742,-1.80628 12.81333,-5.09305 3.382588,-3.28676 5.391307,-7.94577 5.459065,-12.66172 0.06776,-4.71594 -1.806283,-9.43074 -5.093047,-12.813327 -3.286765,-3.382588 -7.945777,-5.391308 -12.661721,-5.459065 -4.715944,-0.06776 -9.430742,1.806282 -12.81333,5.093047 -3.382588,3.286765 -5.391307,7.945775 -5.459065,12.661725 -0.06776,4.71594 1.806283,9.43074 5.093047,12.81333 3.286765,3.38258 7.945777,5.3913 12.661721,5.45906 z m 57.381778,51.85431 c -11.95036,-20.89555 -18.44803,-44.87869 -18.68011,-68.94903 -0.23209,-24.070337 5.80193,-48.174312 17.34716,-69.296401 0.38804,-0.709915 0.78216,-1.416506 1.1823,-2.119668 M 14.040738,176.12439 C 25.991015,155.22882 32.488632,131.24569 32.720717,107.17537 32.952802,83.105048 26.918839,59.001091 15.373695,37.878974 14.985659,37.169054 14.591541,36.462458 14.191397,35.759291 M 72.01397,-40.145806 c 24.525469,18.807007 44.18975,43.8994244 56.58879,72.209598 12.39904,28.310173 17.50654,59.778039 14.69809,90.556518 -4.59877,50.399 -31.05217,98.42406 -71.191996,129.24616 M 71.975282,-40.146334 C 47.48531,-21.328148 27.854487,3.7601623 15.478369,32.057062 3.1022511,60.353962 -1.9930043,91.799644 0.81437856,122.55678 5.4173302,172.98582 31.895976,221.03764 72.069303,251.86585"
       sodipodi:nodetypes="cccccsccsccccccsccscccccccccccccccccccccccccccccccccssscsccsccsccsc"
       inkscape:original-d="m 129.26786,13.166362 c -1.94949,2.467163 -3.89837,4.93368 -5.8466,7.399599 m 12.97212,-5.84659 c -2.92394,4.294226 -5.90813,8.648718 -8.86122,12.972136 m 44.31356,-84.841521 c -14.0549,22.838807 -28.10916,45.872189 -42.16279,68.807329 -14.05362,22.935158 -0.39102,1.171809 -0.58559,1.756781 m 42.74838,-70.271311 c -11.90771,23.814797 -23.42441,47.4337536 -35.13566,71.149702 -11.71126,23.715954 -0.19579,0.195788 -0.2928,0.292797 m -122.365734,0.03515 c 1.949493,2.467162 3.89836,4.933679 5.846588,7.399575 M 6.9260006,16.17344 c 2.9239239,4.294203 5.9081184,8.648695 8.8612324,12.972109 m -44.313571,-84.841603 c 14.054896,22.838806 28.1091552,45.8721724 42.16279,68.807336 14.053633,22.935144 0.391025,1.17181 0.585591,1.756782 m -42.748381,-70.271318 c 11.907715,23.814797 23.4244036,47.4337611 35.1356564,71.149709 11.7112526,23.715923 0.1958341,0.195787 0.2927984,0.292797 M 162.19091,239.55318 c -2.15626,1.63596 -4.23757,3.27127 -6.35542,4.90596 m -31.94442,-54.18845 c 11.5209,19.32711 20.3673,34.72686 31.85232,54.05269 m -27.89413,-62.97262 c 11.52093,19.32711 22.96815,38.65359 34.45318,57.97943 m -180.057713,1.32384 c 2.156278,1.63596 4.237592,3.27129 6.355438,4.90598 M 20.544598,191.37156 C 9.0236845,210.69865 0.17728667,226.0984 -11.307732,245.42425 M 16.586382,182.45162 C 5.0654687,201.77872 -6.3817526,221.1052 -17.866771,240.43104 M 67.884288,129.47198 c 0.140265,37.5245 0.118994,75.2121 0.179295,112.81911 0.06054,37.60699 0.161848,0.32429 0.243701,0.4874 m -0.167589,0.0303 c -6.4e-4,-38.21508 -0.257609,-75.03658 -0.256954,-113.2504 m 8.77e-4,-159.530121 c 0.140265,37.5245044 0.118995,75.212126 0.179296,112.81912 0.06054,37.607021 0.161847,0.324306 0.243701,0.487388 m -0.167589,0.03064 C 68.138386,45.150401 67.900218,8.279492 67.900932,-29.934334 M 76.85127,242.36159 c -0.140265,-37.52449 -0.118994,-75.21208 -0.179295,-112.81908 -0.06054,-37.607021 -0.161848,-0.3243 -0.243701,-0.48741 m 0.167589,-0.0307 c 6.4e-4,38.21508 0.237618,75.1031 0.236904,113.31693 m 0.01919,-272.312953 C 76.711541,7.5529294 76.73296,45.240539 76.672659,82.847548 c -0.06054,37.606992 -0.161848,0.324276 -0.243701,0.487388 m 0.167574,0.03034 C 76.597187,45.150193 76.835355,8.330325 76.834641,-29.883496 M 71.909062,124.6868 c -6.25e-4,12.24999 0.518252,-23.77592 0.517627,-36.027162 -6.1e-4,-12.251252 -0.517003,23.777172 -0.517627,36.027162 z m 57.381778,51.85431 c -6.4e-4,-46.51448 -1.21584,-91.611927 -1.33295,-138.245431 -0.11721,-46.6334993 0.4751,-0.470401 1.1823,-2.119668 M 14.040738,176.12439 C 14.041371,129.60992 15.256578,84.512463 15.373695,37.878974 15.49083,-8.7545503 14.89859,37.408573 14.191397,35.759291 M 72.01397,-40.145806 c -3.12e-4,49.1290076 71.28688,113.637422 71.28688,162.766116 0,48.13526 -71.192309,81.1112 -71.191996,129.24616 M 71.975282,-40.146334 C 71.975595,8.982675 0.81438302,73.428103 0.81437856,122.55678 0.81437559,170.69205 72.069615,203.73089 72.069303,251.86585"
       inkscape:path-effect="#path-effect3606-8" /><path
       style="fill:#000000;fill-opacity:1;stroke:#000000;stroke-width:2.59812;stroke-linecap:round;stroke-linejoin:bevel;stroke-miterlimit:13.2;stroke-dasharray:none;stroke-opacity:1;paint-order:fill markers stroke"
       d="M 14.139807,40.460922 C 11.034449,46.645124 9.4800635,53.653601 7.5345724,60.319776 -1.6962231,96.4146 0.04377605,135.46339 13.720502,170.19848 c 0.95345,2.24385 2.05194,-0.8462 2.548973,-1.73491 15.592353,-31.32309 19.178168,-68.498063 9.07822,-102.070139 -2.69533,-8.915844 -5.912603,-17.86169 -10.856747,-25.782769 -0.0917,-0.08538 -0.216607,-0.179057 -0.35114,-0.149651 z"
       id="path3709" /><path
       style="fill:#000000;fill-opacity:1;stroke:#000000;stroke-width:2.59812;stroke-linecap:round;stroke-linejoin:bevel;stroke-miterlimit:13.2;stroke-dasharray:none;stroke-opacity:1;paint-order:fill markers stroke"
       d="m 129.50524,39.809233 c -3.65955,4.995682 -5.75158,11.115417 -8.17321,16.815712 -5.66819,15.854844 -9.37215,32.632463 -8.77605,49.551645 -0.28939,13.20022 1.48259,26.38204 5.34497,39.01009 2.87912,9.28513 6.30298,20.99019 11.55004,29.1989 1.90236,-1.62379 1.90521,-7.11113 2.97029,-9.36151 5.71126,-16.65579 9.12623,-34.07867 9.60741,-51.69654 1.17612,-24.646473 -2.79713,-49.59552 -11.77884,-72.58053 -0.20582,-0.281184 -0.3075,-0.932056 -0.74461,-0.937767 z"
       id="path3711"
       sodipodi:nodetypes="ccccccccc" /></g></svg>
